PathFileType	4	(X/Y/Z)	T1_P2_Vision_NoMovement_4_0-734.trc
DataRate	CameraRate	NumFrames	NumMarkers	Units	OrigDataRate	OrigDataStartFrame	OrigNumFrames
60	60	4	27	m	60	458	734
Frame#	Time	RHip			RKnee			RAnkle			RBigToe			RSmallToe			RHeel			LHip			LKnee			LAnkle			LBigToe			LSmallToe			LHeel			Neck			Head			Nose			RShoulder			RElbow			RWrist			RThumb			RIndex			RPinky			LShoulder			LElbow			LWrist			LThumb			LIndex			LPinky		
		X1	Y1	Z1	X2	Y2	Z2	X3	Y3	Z3	X4	Y4	Z4	X5	Y5	Z5	X6	Y6	Z6	X7	Y7	Z7	X8	Y8	Z8	X9	Y9	Z9	X10	Y10	Z10	X11	Y11	Z11	X12	Y12	Z12	X13	Y13	Z13	X14	Y14	Z14	X15	Y15	Z15	X16	Y16	Z16	X17	Y17	Z17	X18	Y18	Z18	X19	Y19	Z19	X20	Y20	Z20	X21	Y21	Z21	X22	Y22	Z22	X23	Y23	Z23	X24	Y24	Z24	X25	Y25	Z25	X26	Y26	Z26	X27	Y27	Z27
459	7.65	459.1394193485012	3732.3656535722102	671.3614337696217	845.0852898224148	3722.9491515420264	655.4042121375915	1214.4032166671634	3729.7393475923313	691.0287070737961	1289.6743139850632	3642.29413475053	648.623043675615	1286.4760954828723	3691.8352272168604	607.6746282438709	1274.4621979181707	3789.0533355113407	744.5455181986156	468.6003954748967	3648.4166780945893	866.8791724153082	843.2533944850517	3612.808423908507	843.1694706027865	1226.674649167997	3675.1343079045823	854.0144300271116	1309.770362785825	3562.638818739583	811.5098766432556	1282.4680367449405	3539.1281790496423	839.2653068446582	1265.463843986193	3729.200116685708	864.2033420604436	-135.46465376727667	3671.119111404357	776.5598016464738	-398.05606067402164	3658.2196739815204	740.1522943480026	-262.66427976122094	3599.550266299936	737.8337569000021	-43.74977601041684	3773.591398980784	655.2242932417696	198.0014570755398	3764.231614652692	565.2263527819202	346.36688301904525	3562.8592721938	634.1613527343085	399.6788674259072	3530.262996833174	706.9189831687052	423.08498217644546	3542.1589847438067	737.8728971954877	439.97326762874354	3524.249894558017	722.0001584974203	-41.86273058596847	3643.6751167630878	953.3589098165078	210.5945065458488	3533.6054315975402	935.2114337347273	362.24589265684955	3499.75908487233	758.6725263763241	387.0780168006638	3506.2035643605095	654.686217894705	424.21547372286375	3565.7664289984295	666.9016771229611	462.6143012044145	3515.8122443349716	721.3676525085191
460	7.666666666666667	453.91963752920657	3730.802536726868	670.4368795673365	839.1908100301711	3718.982090224572	654.3082384942392	1214.3162597116275	3729.7149519320037	690.9841759594983	1297.0761973008086	3658.0431798151544	661.5750096838126	1286.4661131691419	3692.03285804676	607.892588736792	1275.1559742071859	3793.3456633829214	740.7308926290992	468.5106354982202	3648.4683346914985	866.958329809492	843.2528930338032	3613.069431299471	843.3294896291392	1221.471580168611	3673.357974374293	852.3917209844442	1304.51708565343	3560.7619480366807	809.9201627907546	1277.5234781497134	3536.133667832516	842.6866838553859	1265.4418302390518	3729.3896818942058	864.37990836517	-135.3968535765408	3671.085065341993	776.4996782686435	-398.172156299592	3658.2110457922845	740.0875102477836	-262.7451796414308	3599.6426059617734	737.9584349163097	-43.82741279116485	3773.4727254414324	655.1667882405434	193.2514529323414	3760.646086277644	564.0294757220253	346.2640877552571	3562.802407111267	634.0893820219516	400.06304849185324	3534.9145756875428	702.4342767160803	419.28390728658167	3546.788457745392	740.2696367358134	439.6755625296161	3521.7821446887738	726.1194174880535	-41.86572546206478	3643.781011936971	953.3730808874753	210.4529234411786	3533.5831555071545	935.0586054701884	362.20954828922163	3499.6878873456835	758.646639197857	386.99273947622726	3506.2458971629767	654.8167560887828	427.42664877782033	3581.650642572742	680.7896549267786	462.65768340287906	3515.552174234014	721.4558921575917
461	7.683333333333334	453.7411102603531	3730.279639824388	670.2958067527572	833.9354743802282	3696.7676804247085	648.417227113734	1214.5078938681431	3729.5593979957484	690.9786081357539	1286.8849959042418	3623.2193406573306	643.9950350193812	1288.4972393960315	3686.415883879944	604.9436732593831	1280.768325045703	3793.254508776414	745.4200606706027	468.43070211552254	3648.69896875886	866.8182948663552	839.7149178320025	3617.9622928888707	846.193891134633	1233.2648913188068	3679.689787307401	855.6053610317504	1297.1992618213517	3546.025587685746	796.5286058012675	1277.1181315087501	3537.5502983630954	837.6213583986047	1265.6247694517817	3729.153386076806	864.2846311094154	-135.31623016715332	3671.0684281122644	776.4513258662633	-398.36146759625376	3658.3050987310753	740.0366034727198	-262.71992229644155	3599.3431468742183	737.536192724884	-43.872887183515175	3773.308549737944	655.1036272615363	193.11069123196185	3760.9827726152726	564.2795498597425	341.6448763460023	3561.5835511500463	633.2076032317985	396.4070382397328	3518.622364745714	688.0080879069271	423.26797951781754	3546.23560990312	734.2786700178102	442.6843824159623	3544.748231332263	728.0368676701413	-42.03870843318945	3643.605850389159	953.3020789388859	205.2823810846964	3529.594648903082	933.0118330670418	366.3986283093324	3501.4471844454138	759.8658191008698	386.6540731210191	3504.5453192140153	660.1096162135357	433.304052571474	3584.983752838024	687.5340706957599	459.5706334347938	3520.5199543226213	724.3843080861864
462	7.7	453.79231259668876	3730.503941600916	670.1656177239886	839.1093075308853	3718.565607948544	654.0000550038844	1214.2860275338662	3729.345802205875	690.8334269514278	1289.514620505847	3641.6157132980165	648.2904167557075	1288.7143265334623	3686.340940393905	604.847733238407	1274.4043451994755	3788.6944872621525	744.372306502085	463.04068508585203	3644.349739296027	865.130515759031	843.1024011167179	3612.9271086126555	843.1833532109547	1221.4307782838778	3673.2757687544668	852.3484292759908	1304.676995694408	3560.737645502453	809.7785094951662	1277.5683223822548	3535.835329723921	842.5499531795593	1265.448628693151	3729.2114861933087	864.2957896555256	-135.2817080376853	3671.064322454069	776.4016226813702	-398.50083802563336	3658.5713328589372	740.0763892037361	-262.26244802951896	3583.911694949492	723.4206829660413	-43.79807576710814	3773.7079113885034	655.226978252927	194.79392871592523	3782.7758721486466	569.2303872261988	341.76699225228583	3561.604142874364	633.2585238333827	395.9114680532843	3513.647025033492	692.3056281615653	423.1794026118428	3542.433497476724	737.8948869411721	447.4294222418136	3546.2165370599155	729.044766611004	-42.00427534676391	3643.4015184996174	953.0404003625456	205.42449915339125	3529.4412442513058	932.9289629962678	366.3954797710328	3501.3909372439302	759.7567258339485	386.55267375280454	3504.0970565458792	660.152682689029	427.6780486116225	3580.6798901126363	686.1333725727075	459.6697323109029	3520.262545703278	724.341889159746
